<?xml version="1.0" standalone="no"?>
<!DOCTYPE svg PUBLIC "-//W3C//DTD SVG 20010904//EN"
 "http://www.w3.org/TR/2001/REC-SVG-20010904/DTD/svg10.dtd">
<svg version="1.0" xmlns="http://www.w3.org/2000/svg"
 width="512.000000pt" height="512.000000pt" viewBox="0 0 512.000000 512.000000"
 preserveAspectRatio="xMidYMid meet">

<g transform="translate(0.000000,512.000000) scale(0.100000,-0.100000)"
fill="#000000" stroke="none">
<path d="M1833 5015 c-102 -28 -250 -87 -398 -160 -262 -128 -442 -255 -653
-460 -428 -414 -680 -916 -763 -1515 -18 -124 -18 -516 -1 -635 83 -577 316
-1062 707 -1464 862 -887 2227 -1034 3250 -350 302 202 562 469 759 779 64
100 186 351 231 474 77 210 132 467 142 661 5 103 3 126 -12 155 -30 60 -75
100 -133 116 -100 29 -167 0 -268 -115 -243 -279 -573 -470 -954 -553 -92 -19
-133 -22 -330 -22 -247 0 -325 11 -529 75 -361 115 -721 397 -921 724 -267
435 -328 972 -164 1446 47 137 130 304 204 409 108 154 115 168 115 235 -1 97
-58 173 -149 200 -59 18 -66 18 -133 0z m-452 -737 c-72 -222 -95 -376 -95
-648 0 -191 3 -244 22 -352 161 -898 827 -1577 1715 -1747 494 -95 1047 2
1470 256 32 19 60 33 63 31 2 -3 -12 -43 -31 -89 -285 -667 -885 -1142 -1605
-1271 -146 -26 -444 -35 -591 -19 -996 113 -1777 894 -1890 1890 -15 135 -7
455 15 576 102 562 387 1029 831 1363 60 45 111 80 113 77 2 -2 -5 -32 -17
-67z"/>
<path d="M4057 4903 c-4 -3 -7 -53 -7 -110 l0 -103 -105 0 -105 0 0 -210 0
-210 105 0 104 0 3 -107 3 -108 213 -3 212 -2 0 110 0 110 105 0 105 0 0 210
0 210 -105 0 -105 0 0 110 0 110 -208 0 c-115 0 -212 -3 -215 -7z"/>
<path d="M2560 4160 l0 -110 -105 0 -105 0 0 -210 0 -210 105 0 105 0 0 -110
0 -110 213 2 212 3 3 108 3 107 104 0 105 0 0 210 0 210 -105 0 -104 0 -3 108
-3 107 -212 3 -213 2 0 -110z"/>
<path d="M3630 3095 l0 -104 -107 -3 -108 -3 -3 -212 -2 -213 110 0 110 0 0
-105 0 -105 210 0 210 0 0 105 0 105 110 0 110 0 -2 213 -3 212 -107 3 -108 3
0 104 0 105 -210 0 -210 0 0 -105z"/>
</g>
</svg>
